<mxfile host="app.diagrams.net" modified="2023-11-09T13:41:00.153Z" agent="Mozilla/5.0 (Windows NT 10.0; Win64; x64) AppleWebKit/537.36 (KHTML, like Gecko) Chrome/118.0.0.0 Safari/537.36" version="22.0.0" etag="uBKkcOCyEiqCAuiGEll4" type="github">
  <diagram name="Halaman-1" id="slqR5eI6DnNDDrvd1DKI">
    <mxGraphModel>
      <root>
        <mxCell id="0" />
        <mxCell id="1" parent="0" />
      </root>
    </mxGraphModel>
  </diagram>
</mxfile>
